<mxfile host="app.diagrams.net" modified="2021-02-02T11:08:05.910Z" agent="5.0 (Windows NT 10.0; Win64; x64) AppleWebKit/537.36 (KHTML, like Gecko) Chrome/88.0.4324.104 Safari/537.36" etag="MEhtQX0518S92qQ_Ku3J" version="14.2.9" type="github">
  <diagram id="3EvpA301lRNWK3S_ud2Z" name="Page-1">
    <mxGraphModel dx="1865" dy="547" grid="1" gridSize="10" guides="1" tooltips="1" connect="1" arrows="1" fold="1" page="1" pageScale="1" pageWidth="827" pageHeight="1169" math="0" shadow="0">
      <root>
        <mxCell id="0" />
        <mxCell id="1" parent="0" />
        <mxCell id="baKfdwrDd8Fa7MMFY9Ff-1" value="Kubernetes" style="rounded=1;whiteSpace=wrap;html=1;verticalAlign=top;" vertex="1" parent="1">
          <mxGeometry x="150" y="80" width="360" height="230" as="geometry" />
        </mxCell>
        <mxCell id="baKfdwrDd8Fa7MMFY9Ff-2" value="" style="aspect=fixed;html=1;points=[];align=center;image;fontSize=12;image=img/lib/mscae/Kubernetes_Services.svg;" vertex="1" parent="1">
          <mxGeometry x="309.73" y="110" width="40.54" height="30" as="geometry" />
        </mxCell>
        <mxCell id="baKfdwrDd8Fa7MMFY9Ff-11" style="edgeStyle=orthogonalEdgeStyle;rounded=0;orthogonalLoop=1;jettySize=auto;html=1;entryX=1;entryY=0.5;entryDx=0;entryDy=0;" edge="1" parent="1" source="baKfdwrDd8Fa7MMFY9Ff-3" target="baKfdwrDd8Fa7MMFY9Ff-5">
          <mxGeometry relative="1" as="geometry" />
        </mxCell>
        <mxCell id="baKfdwrDd8Fa7MMFY9Ff-12" style="edgeStyle=orthogonalEdgeStyle;rounded=0;orthogonalLoop=1;jettySize=auto;html=1;" edge="1" parent="1" source="baKfdwrDd8Fa7MMFY9Ff-21" target="baKfdwrDd8Fa7MMFY9Ff-4">
          <mxGeometry relative="1" as="geometry" />
        </mxCell>
        <mxCell id="baKfdwrDd8Fa7MMFY9Ff-3" value="Pod Identity" style="rounded=1;whiteSpace=wrap;html=1;" vertex="1" parent="1">
          <mxGeometry x="170" y="170" width="120" height="60" as="geometry" />
        </mxCell>
        <mxCell id="baKfdwrDd8Fa7MMFY9Ff-17" style="edgeStyle=orthogonalEdgeStyle;rounded=0;orthogonalLoop=1;jettySize=auto;html=1;entryX=0;entryY=0.5;entryDx=0;entryDy=0;" edge="1" parent="1" source="baKfdwrDd8Fa7MMFY9Ff-4" target="baKfdwrDd8Fa7MMFY9Ff-15">
          <mxGeometry relative="1" as="geometry" />
        </mxCell>
        <mxCell id="baKfdwrDd8Fa7MMFY9Ff-4" value="Application" style="rounded=1;whiteSpace=wrap;html=1;" vertex="1" parent="1">
          <mxGeometry x="370" y="170" width="120" height="60" as="geometry" />
        </mxCell>
        <mxCell id="baKfdwrDd8Fa7MMFY9Ff-5" value="Active Directory" style="rounded=1;whiteSpace=wrap;html=1;verticalAlign=top;" vertex="1" parent="1">
          <mxGeometry x="-40" y="170" width="120" height="60" as="geometry" />
        </mxCell>
        <mxCell id="baKfdwrDd8Fa7MMFY9Ff-6" value="" style="aspect=fixed;html=1;points=[];align=center;image;fontSize=12;image=img/lib/mscae/Active_Directory.svg;" vertex="1" parent="1">
          <mxGeometry x="5" y="191" width="30" height="30" as="geometry" />
        </mxCell>
        <mxCell id="baKfdwrDd8Fa7MMFY9Ff-7" value="Application pod is deployed" style="text;html=1;strokeColor=none;fillColor=none;align=left;verticalAlign=middle;whiteSpace=wrap;rounded=0;" vertex="1" parent="1">
          <mxGeometry x="440" y="130" width="40" height="20" as="geometry" />
        </mxCell>
        <mxCell id="baKfdwrDd8Fa7MMFY9Ff-8" value="1" style="ellipse;whiteSpace=wrap;html=1;aspect=fixed;strokeWidth=2;fontFamily=Tahoma;spacingBottom=4;spacingRight=2;strokeColor=#d3d3d3;" vertex="1" parent="1">
          <mxGeometry x="404" y="130" width="20" height="20" as="geometry" />
        </mxCell>
        <mxCell id="baKfdwrDd8Fa7MMFY9Ff-9" value="Pod identity authenticates application with AD and returns token to pod" style="text;html=1;strokeColor=none;fillColor=none;align=left;verticalAlign=middle;whiteSpace=wrap;rounded=0;" vertex="1" parent="1">
          <mxGeometry x="200" y="250" width="190" height="20" as="geometry" />
        </mxCell>
        <mxCell id="baKfdwrDd8Fa7MMFY9Ff-10" value="2" style="ellipse;whiteSpace=wrap;html=1;aspect=fixed;strokeWidth=2;fontFamily=Tahoma;spacingBottom=4;spacingRight=2;strokeColor=#d3d3d3;" vertex="1" parent="1">
          <mxGeometry x="170" y="250" width="20" height="20" as="geometry" />
        </mxCell>
        <mxCell id="baKfdwrDd8Fa7MMFY9Ff-13" value="Azure Identity SDK used to retrieve token" style="text;html=1;strokeColor=none;fillColor=none;align=left;verticalAlign=middle;whiteSpace=wrap;rounded=0;" vertex="1" parent="1">
          <mxGeometry x="570" y="130" width="190" height="20" as="geometry" />
        </mxCell>
        <mxCell id="baKfdwrDd8Fa7MMFY9Ff-14" value="3" style="ellipse;whiteSpace=wrap;html=1;aspect=fixed;strokeWidth=2;fontFamily=Tahoma;spacingBottom=4;spacingRight=2;strokeColor=#d3d3d3;align=center;" vertex="1" parent="1">
          <mxGeometry x="540" y="130" width="20" height="20" as="geometry" />
        </mxCell>
        <mxCell id="baKfdwrDd8Fa7MMFY9Ff-15" value="Service Bus" style="rounded=1;whiteSpace=wrap;html=1;verticalAlign=top;" vertex="1" parent="1">
          <mxGeometry x="590" y="170" width="120" height="60" as="geometry" />
        </mxCell>
        <mxCell id="baKfdwrDd8Fa7MMFY9Ff-16" value="" style="aspect=fixed;html=1;points=[];align=center;image;fontSize=12;image=img/lib/mscae/Service_Bus.svg;" vertex="1" parent="1">
          <mxGeometry x="640" y="192" width="30" height="30" as="geometry" />
        </mxCell>
        <mxCell id="baKfdwrDd8Fa7MMFY9Ff-19" value="Azure Service Bus SDK uses token to interact with Service Bus" style="text;html=1;strokeColor=none;fillColor=none;align=left;verticalAlign=middle;whiteSpace=wrap;rounded=0;" vertex="1" parent="1">
          <mxGeometry x="560" y="260" width="190" height="20" as="geometry" />
        </mxCell>
        <mxCell id="baKfdwrDd8Fa7MMFY9Ff-20" value="4" style="ellipse;whiteSpace=wrap;html=1;aspect=fixed;strokeWidth=2;fontFamily=Tahoma;spacingBottom=4;spacingRight=2;strokeColor=#d3d3d3;align=center;" vertex="1" parent="1">
          <mxGeometry x="530" y="260" width="20" height="20" as="geometry" />
        </mxCell>
        <mxCell id="baKfdwrDd8Fa7MMFY9Ff-21" value="" style="shape=image;html=1;verticalAlign=top;verticalLabelPosition=bottom;labelBackgroundColor=#ffffff;imageAspect=0;aspect=fixed;image=https://cdn1.iconfinder.com/data/icons/DarkGlass_Reworked/128x128/actions/stop.png;align=center;" vertex="1" parent="1">
          <mxGeometry x="311" y="181" width="38" height="38" as="geometry" />
        </mxCell>
        <mxCell id="baKfdwrDd8Fa7MMFY9Ff-22" style="edgeStyle=orthogonalEdgeStyle;rounded=0;orthogonalLoop=1;jettySize=auto;html=1;" edge="1" parent="1" source="baKfdwrDd8Fa7MMFY9Ff-3" target="baKfdwrDd8Fa7MMFY9Ff-21">
          <mxGeometry relative="1" as="geometry">
            <mxPoint x="290" y="200" as="sourcePoint" />
            <mxPoint x="370" y="200" as="targetPoint" />
          </mxGeometry>
        </mxCell>
      </root>
    </mxGraphModel>
  </diagram>
</mxfile>
